<?xml version="1.0" standalone="no"?>
<!DOCTYPE svg PUBLIC "-//W3C//DTD SVG 20010904//EN"
 "http://www.w3.org/TR/2001/REC-SVG-20010904/DTD/svg10.dtd">
<svg version="1.0" xmlns="http://www.w3.org/2000/svg"
 width="1416.000000pt" height="1416.000000pt" viewBox="0 0 1416.000000 1416.000000"
 preserveAspectRatio="xMidYMid meet">
<metadata>
Created by potrace 1.11, written by Peter Selinger 2001-2013
</metadata>
<g transform="translate(0.000000,1416.000000) scale(0.100000,-0.100000)"
fill="#000000" stroke="none">
<path d="M6438 8674 c-2 -1 -19 -6 -38 -9 -19 -3 -44 -8 -55 -11 -36 -9 -147
-68 -172 -91 -13 -13 -28 -23 -34 -23 -5 0 -9 -3 -9 -7 0 -5 -16 -25 -34 -47
-37 -42 -90 -143 -100 -191 -10 -48 -15 -96 -17 -166 l-2 -66 -36 5 c-43 6
-158 6 -186 0 -92 -22 -154 -49 -210 -91 -166 -126 -240 -322 -200 -532 14
-73 74 -179 141 -250 35 -37 64 -68 64 -70 0 -2 -20 -16 -45 -32 -25 -15 -45
-31 -45 -35 0 -3 -15 -22 -32 -42 -18 -19 -37 -41 -43 -48 -15 -20 -48 -86
-46 -92 1 -4 -6 -21 -15 -39 -20 -38 -28 -196 -14 -269 13 -67 63 -162 118
-227 95 -111 229 -171 391 -174 l92 -2 -6 -45 c-31 -225 63 -420 256 -535 60
-35 208 -78 223 -64 5 4 19 4 31 -1 13 -5 25 -6 28 -3 3 3 21 6 39 8 100 7
213 64 296 147 60 61 78 69 89 41 4 -10 25 -37 46 -60 200 -214 535 -222 741
-18 83 82 132 180 155 310 1 3 1 39 1 80 0 75 0 75 25 69 13 -3 52 -7 86 -8
56 -3 84 1 166 18 32 7 122 53 163 84 37 28 110 103 110 114 0 4 6 13 14 21
40 40 80 174 79 271 0 82 -5 112 -27 179 -29 81 -58 125 -140 209 l-49 50 34
26 c67 50 133 128 163 192 17 36 31 70 33 75 15 62 18 94 17 175 -2 110 -20
170 -84 267 -54 84 -180 183 -252 199 -5 1 -10 3 -13 4 -3 1 -8 3 -12 4 -5 1
-12 4 -18 7 -13 7 -75 12 -156 13 l-66 1 1 110 c0 60 -2 122 -6 137 -13 52
-32 103 -45 119 -7 8 -13 19 -13 23 0 13 -54 80 -100 123 -134 127 -347 169
-522 103 -73 -28 -127 -63 -192 -124 -32 -31 -62 -56 -66 -56 -5 0 -18 15 -29
33 -54 88 -205 185 -315 202 -42 7 -154 13 -158 9z"/>
<path d="M1488 7635 c-3 0 -6 -962 -3 -981 4 -20 9 -20 342 -20 l338 1 3 106
3 106 -198 1 c-109 0 -207 1 -218 1 -20 1 -20 7 -20 391 0 256 -3 390 -10 391
-7 1 -207 4 -237 4z"/>
<path d="M8927 7630 c-10 -4 -12 -112 -11 -490 1 -267 2 -490 3 -496 1 -6 45
-10 124 -10 l122 1 1 498 c1 273 -1 497 -5 498 -24 4 -224 3 -234 -1z"/>
<path d="M3455 7342 c-54 -5 -137 -33 -179 -59 -56 -36 -83 -67 -118 -140 -47
-99 -45 -240 4 -342 34 -70 128 -151 193 -167 6 -2 24 -6 40 -10 44 -11 164
-8 211 5 23 6 58 22 78 36 l37 25 -2 -47 c-3 -61 -31 -118 -68 -137 -30 -16
-137 -36 -146 -28 -2 3 -31 6 -62 8 -32 1 -80 9 -108 18 -27 9 -54 16 -60 16
-17 0 -12 -159 5 -171 65 -41 286 -55 415 -25 117 28 193 84 238 179 37 75 40
114 40 481 l1 330 -26 7 c-14 4 -31 3 -38 -1 -6 -4 -25 -4 -41 -1 -16 3 -54 4
-84 3 -51 -4 -54 -5 -57 -33 l-3 -28 -50 31 c-27 17 -51 30 -52 30 -2 -1 -4
-2 -5 -1 -45 14 -129 24 -163 21z m180 -218 c40 -18 85 -67 86 -92 2 -46 -3
-127 -9 -132 -4 -3 -12 -14 -18 -25 -19 -34 -84 -64 -144 -67 -55 -3 -130 38
-150 81 -19 40 -20 131 -2 166 42 83 145 113 237 69z"/>
<path d="M4437 7344 c-1 -1 -28 -5 -60 -8 -61 -7 -167 -48 -202 -78 -50 -43
-62 -55 -81 -83 -83 -123 -74 -312 21 -422 42 -49 112 -95 180 -118 81 -27
260 -26 335 3 8 3 17 6 20 7 46 11 170 106 170 130 0 7 7 15 15 19 8 3 14 9
13 13 0 4 5 22 12 38 7 17 13 54 14 82 0 29 4 53 7 53 13 0 -12 106 -36 156
-34 69 -127 154 -185 169 -3 0 -21 6 -41 13 -32 11 -69 17 -152 25 -15 2 -29
2 -30 1z m78 -208 c11 -2 23 -5 26 -5 21 -3 69 -69 77 -107 25 -118 -37 -208
-148 -213 -106 -5 -169 53 -174 160 -7 124 90 197 219 165z"/>
<path d="M9690 7329 c-38 -10 -86 -29 -106 -43 -42 -29 -53 -27 -47 7 4 20 0
25 -19 29 -14 3 -34 1 -46 -3 -12 -5 -23 -5 -26 0 -3 4 -30 4 -60 1 -31 -3
-62 -2 -71 2 -8 5 -16 5 -16 1 -1 -4 -2 -230 -3 -501 -1 -486 -1 -493 19 -497
11 -2 38 -4 60 -5 22 0 49 0 60 0 11 0 41 0 66 1 l46 1 -1 179 c-1 98 0 179 2
179 2 0 22 -9 45 -21 111 -55 258 -59 362 -9 170 82 240 316 150 505 -67 140
-247 216 -415 174z m101 -198 c63 -27 98 -86 94 -161 -5 -94 -58 -149 -154
-157 -70 -7 -120 13 -158 63 -21 28 -25 45 -26 103 0 58 3 73 24 99 49 61 145
84 220 53z"/>
<path d="M10488 7344 c-2 -2 -22 -6 -44 -9 -166 -21 -242 -86 -247 -211 -2
-31 1 -58 5 -60 4 -3 8 -14 8 -25 0 -10 5 -19 10 -19 6 0 10 -7 10 -15 0 -16
81 -75 103 -75 7 0 17 -3 21 -7 4 -5 11 -8 14 -9 4 0 14 -3 22 -7 14 -6 99
-30 110 -31 3 -1 25 -10 48 -20 49 -22 56 -51 17 -66 -25 -10 -138 -7 -185 5
-14 3 -29 7 -35 9 -34 8 -91 30 -100 37 -5 5 -16 9 -25 9 -14 0 -16 -13 -14
-82 1 -46 2 -86 3 -89 1 -6 54 -31 76 -36 6 -1 21 -4 35 -8 137 -31 345 -25
405 13 6 4 12 7 15 7 3 0 20 11 38 25 70 52 93 168 50 249 -35 65 -118 107
-301 152 -26 6 -54 21 -62 32 -24 34 4 50 91 53 41 1 74 -1 74 -5 0 -3 15 -7
33 -8 19 -1 55 -11 81 -23 26 -13 50 -19 54 -16 9 10 10 148 1 167 -13 25 -88
45 -214 55 -38 3 -75 7 -82 9 -6 2 -13 2 -15 -1z"/>
<path d="M12728 7345 c-2 -1 -26 -5 -54 -8 -53 -5 -153 -47 -174 -72 -10 -12
-17 -9 -45 19 -22 23 -50 38 -85 46 -59 14 -155 9 -191 -11 -13 -7 -30 -14
-38 -15 -7 -2 -26 -15 -42 -30 -26 -25 -29 -26 -30 -8 -1 10 -1 27 0 37 2 14
-7 17 -63 18 -91 2 -105 2 -113 -1 -5 -1 -19 -3 -32 -3 l-25 -2 0 -333 c-1
-212 3 -336 9 -341 6 -4 59 -7 120 -7 l109 1 6 30 c3 17 3 44 0 60 -3 17 -3
53 0 80 3 28 3 64 0 80 -3 17 -3 49 1 73 3 23 3 42 -1 42 -4 0 -4 19 0 42 9
48 57 97 97 99 13 1 29 2 36 3 24 4 56 -17 66 -43 6 -14 10 -103 10 -201 0
-96 0 -195 1 -220 l0 -45 118 0 117 0 2 229 c1 126 4 235 7 243 12 31 96 47
143 28 43 -18 46 -41 47 -290 l1 -210 105 -1 c58 -1 112 0 120 2 14 3 15 38
14 261 -1 151 -6 272 -13 292 -15 48 -50 96 -85 117 -28 16 -131 46 -138 39z"/>
<path d="M2460 7314 c-101 -34 -172 -89 -208 -160 -85 -167 -50 -344 88 -453
122 -97 373 -115 522 -39 79 42 143 117 172 203 15 46 22 140 13 175 -16 61
-23 80 -44 117 -90 157 -336 228 -543 157z m255 -189 c75 -36 103 -167 51
-245 -33 -50 -67 -67 -136 -68 -97 0 -155 51 -164 145 -12 116 65 197 178 186
21 -2 53 -10 71 -18z"/>
<path d="M10990 7320 l-45 -5 -1 -230 c0 -176 3 -243 15 -285 8 -30 18 -56 23
-58 4 -2 8 -9 8 -16 0 -16 46 -59 85 -79 52 -27 88 -34 163 -31 81 3 116 13
180 56 24 15 44 28 46 28 2 0 2 -11 1 -24 -2 -13 0 -27 4 -33 3 -5 59 -9 123
-9 l117 -1 -2 345 -2 345 -119 -2 c-66 -1 -122 -3 -125 -5 -3 -2 -6 -93 -5
-203 1 -207 -5 -248 -37 -258 -10 -4 -19 -10 -19 -15 0 -10 -76 -34 -100 -32
-96 9 -106 40 -105 304 1 191 1 198 -19 205 -25 8 -105 7 -113 -1 -4 -3 -11
-2 -17 2 -6 4 -31 5 -56 2z"/>
</g>
</svg>
